<svg xmlns="http://www.w3.org/2000/svg" class="h-6 w-6" fill="none"
viewBox="0 0 24 24" stroke="#8AB83F" stroke-width="2">
  <path stroke-linecap="round" stroke-linejoin="round"
  d="M22 16.92v3a2 2 0 0 1-2.18 2
  19.79 19.79 0 0 1-8.63-3.07
  19.5 19.5 0 0 1-6-6
  19.79 19.79 0 0 1-3.07-8.67
  A2 2 0 0 1 4.11 2h3
  a2 2 0 0 1 2 1.72
  c.12.89.37 1.76.72 2.59
  a2 2 0 0 1-.45 2.11L8.09 9.91
  a16 16 0 0 0 6 6l1.49-1.49
  a2 2 0 0 1 2.11-.45
  c.83.35 1.7.6 2.59.72
  A2 2 0 0 1 22 16.92z" />
</svg>